<?xml version="1.0" standalone="no"?>
<!DOCTYPE svg PUBLIC "-//W3C//DTD SVG 20010904//EN"
 "http://www.w3.org/TR/2001/REC-SVG-20010904/DTD/svg10.dtd">
<svg version="1.0" xmlns="http://www.w3.org/2000/svg"
 width="1681.000000pt" height="624.000000pt" viewBox="0 0 1681.000000 624.000000"
 preserveAspectRatio="xMidYMid meet">

<g transform="translate(0.000000,624.000000) scale(0.100000,-0.100000)"
fill="#000000" stroke="none">
<path d="M9160 4669 c-527 -30 -919 -113 -1676 -355 -407 -129 -598 -180 -794
-210 -52 -7 -264 -21 -470 -29 -206 -8 -431 -17 -500 -20 -69 -3 -262 -10
-430 -16 -168 -5 -309 -14 -313 -19 -10 -9 79 -44 397 -156 145 -51 248 -92
263 -106 26 -25 25 -50 -4 -95 -34 -52 -27 -51 -653 -93 -273 -18 -711 -46
-1125 -71 -93 -5 -264 -16 -380 -24 -115 -8 -343 -21 -505 -30 -478 -26 -464
-30 120 -38 300 -4 766 -12 1035 -17 270 -5 670 -12 890 -15 502 -7 518 -9
546 -43 24 -30 20 -71 -12 -134 -34 -66 -69 -75 -385 -98 -141 -10 -236 -18
-654 -55 -96 -8 -260 -22 -365 -30 -413 -33 -767 -63 -771 -67 -2 -3 69 -10
159 -16 89 -7 299 -23 467 -37 168 -14 530 -43 805 -65 275 -22 550 -45 610
-50 238 -21 270 -13 391 103 140 133 213 275 214 415 0 106 -31 157 -148 240
l-43 31 43 5 c24 3 97 7 164 10 66 3 199 19 295 35 302 51 503 109 1324 382
633 210 759 244 1055 293 355 58 798 70 1130 31 474 -55 787 -164 1225 -422
137 -81 218 -132 553 -350 240 -156 335 -187 657 -213 550 -44 1203 -249 1610
-505 221 -139 282 -226 264 -375 -17 -151 -61 -392 -75 -424 l-16 -33 -102 -7
c-55 -3 -251 -9 -435 -12 l-334 -7 6 24 c80 293 -32 628 -268 806 -143 108
-279 154 -460 155 -306 3 -577 -173 -706 -457 -68 -149 -81 -305 -43 -493 l7
-34 -1999 7 c-1099 4 -2002 9 -2005 11 -4 2 -2 23 3 46 19 77 13 264 -11 353
-61 226 -194 392 -396 490 -145 70 -277 94 -423 76 -181 -23 -329 -96 -457
-225 -92 -94 -136 -162 -176 -278 -31 -92 -54 -240 -46 -299 5 -41 -5 -49 -68
-49 -46 0 -72 24 -143 134 -91 142 -154 217 -236 282 -110 88 -107 88 -319 70
-201 -17 -361 -27 -917 -56 -647 -34 -776 -40 -1125 -55 -565 -24 -626 -27
-623 -30 2 -2 102 -8 223 -14 121 -6 288 -16 370 -21 83 -6 337 -21 565 -35
228 -14 485 -30 570 -35 85 -6 279 -17 430 -25 524 -29 506 -27 541 -61 44
-42 110 -144 163 -254 26 -52 54 -102 62 -111 39 -43 165 -83 455 -143 187
-38 260 -66 290 -107 28 -39 152 -120 241 -157 100 -42 242 -66 332 -57 162
16 317 77 418 164 l57 49 2215 0 2214 1 74 -56 c143 -110 282 -156 463 -156
175 1 328 52 454 153 l60 49 453 2 c636 2 838 10 908 37 73 28 119 68 155 133
25 47 30 64 29 129 0 41 -6 105 -14 141 -12 59 -11 82 8 230 39 293 25 407
-64 537 -105 152 -401 361 -699 494 -332 149 -795 267 -1285 328 -184 23 -321
55 -455 106 -122 47 -195 89 -362 205 -553 386 -1044 584 -1643 664 -119 16
-499 36 -630 33 -41 0 -140 -5 -220 -9z m-2106 -1989 c91 -15 197 -72 261
-142 93 -101 135 -207 135 -344 0 -144 -49 -256 -157 -354 -103 -94 -222 -137
-349 -127 -177 15 -320 120 -406 297 -28 56 -33 78 -36 162 -3 78 0 110 17
166 60 198 244 343 446 351 17 0 56 -3 89 -9z m5558 -20 c186 -70 312 -237
325 -431 21 -303 -258 -561 -553 -510 -344 60 -515 454 -326 747 121 186 356
269 554 194z"/>
<path d="M9140 4139 c-483 -22 -875 -115 -1255 -299 -113 -55 -165 -89 -165
-110 0 -37 212 -151 365 -194 308 -88 950 -163 1650 -192 83 -3 168 -8 190
-10 22 -2 261 -6 530 -10 507 -7 925 5 1038 29 l57 12 -16 23 c-25 35 -203
175 -339 265 -175 117 -475 262 -681 330 -198 65 -249 79 -404 106 -322 55
-575 68 -970 50z"/>
<path d="M7487 3196 c319 -172 592 -382 808 -622 143 -158 238 -250 282 -272
47 -25 78 -27 473 -42 990 -38 1358 -52 1684 -65 203 -9 370 -14 372 -13 1 2
-284 48 -634 102 -350 54 -718 111 -817 127 -99 16 -301 47 -450 69 -356 54
-496 83 -541 111 -21 12 -69 48 -108 79 -356 281 -745 476 -1151 576 -11 3 26
-20 82 -50z"/>
<path d="M13292 2844 c45 -63 132 -140 193 -169 30 -15 138 -43 270 -70 121
-24 235 -49 253 -54 17 -5 32 -6 32 -2 0 16 -59 98 -92 127 -105 92 -297 163
-539 198 -161 24 -157 25 -117 -30z"/>
</g>
</svg>
