<?xml version="1.0" standalone="no"?>
<!DOCTYPE svg PUBLIC "-//W3C//DTD SVG 20010904//EN"
 "http://www.w3.org/TR/2001/REC-SVG-20010904/DTD/svg10.dtd">
<svg version="1.0" xmlns="http://www.w3.org/2000/svg"
 width="1024.000000pt" height="1024.000000pt" viewBox="0 0 1024.000000 1024.000000"
 preserveAspectRatio="xMidYMid meet">

<g transform="translate(0.000000,1024.000000) scale(0.100000,-0.100000)"
fill="#000000" stroke="none">
<path d="M0 5120 l0 -5120 5120 0 5120 0 0 5120 0 5120 -5120 0 -5120 0 0
-5120z m5515 3800 c109 -15 336 -57 410 -76 384 -99 779 -295 1117 -556 442
-339 813 -843 1051 -1423 53 -130 137 -387 137 -420 0 -16 -17 -37 -52 -66
-29 -23 -74 -62 -99 -87 -26 -24 -49 -40 -52 -35 -2 4 -7 25 -11 45 -15 85
-89 336 -130 441 -47 122 -164 360 -246 502 -283 489 -729 906 -1233 1153
-300 146 -583 229 -957 279 -194 25 -657 26 -820 0 -257 -41 -491 -105 -730
-199 -186 -74 -483 -240 -635 -357 -104 -79 -257 -213 -339 -295 -289 -291
-568 -756 -715 -1192 -81 -240 -151 -609 -151 -796 l0 -78 1668 0 c918 0 1671
-3 1674 -6 4 -3 -21 -61 -55 -129 l-62 -123 -1614 5 -1614 5 5 -112 c4 -79 10
-115 19 -121 13 -8 822 -14 1959 -14 283 0 665 -1 848 -2 l334 -3 -6 -27 c-3
-16 -8 -47 -11 -70 -6 -39 -10 -43 -34 -43 -33 0 -106 -25 -211 -71 l-75 -33
-1240 2 c-682 1 -1305 5 -1384 9 l-144 6 7 -54 c4 -29 17 -83 29 -119 21 -63
23 -65 62 -73 22 -4 521 -9 1108 -11 588 -3 1071 -7 1074 -9 9 -10 -43 -37
-203 -106 -87 -37 -197 -85 -244 -106 l-85 -38 -760 7 c-419 3 -775 3 -793 0
-18 -4 -32 -11 -32 -17 0 -6 23 -62 51 -125 65 -146 162 -310 229 -386 l52
-60 -57 -19 c-32 -10 -84 -36 -115 -57 l-57 -39 -60 92 c-184 283 -328 610
-408 927 -67 267 -88 432 -100 780 -19 546 127 1144 405 1660 270 502 701 946
1185 1222 353 201 679 321 1075 394 80 14 181 30 225 35 109 10 711 3 810 -11z
m-131 -615 c167 -30 294 -126 375 -285 66 -127 161 -292 184 -317 15 -17 24
-20 38 -13 10 6 28 10 41 10 13 0 37 8 53 17 19 10 63 18 121 21 103 5 150
-11 198 -68 48 -58 26 -159 -43 -195 -41 -21 -50 -19 -82 11 -35 33 -89 43
-159 30 -49 -10 -55 -14 -55 -36 0 -21 11 -30 65 -56 132 -63 238 -214 260
-369 6 -47 8 -129 5 -200 -6 -105 -10 -128 -36 -182 -34 -70 -109 -144 -185
-183 -69 -34 -140 -36 -924 -27 -418 6 -866 5 -1206 -2 -316 -6 -554 -7 -572
-1 -44 12 -135 75 -173 118 -18 20 -48 70 -68 111 l-36 76 1 150 c0 174 10
229 65 336 53 102 101 147 186 174 61 20 68 25 65 46 -7 43 -20 49 -103 49
-76 0 -80 -1 -118 -35 -46 -42 -60 -43 -93 -7 -85 90 -74 197 27 249 34 18
184 12 299 -12 63 -13 72 -13 87 1 10 9 54 86 100 172 45 86 95 178 110 203
79 127 202 200 364 218 39 5 309 9 600 9 416 1 547 -2 609 -13z m3151 -2009
l0 -98 -141 -137 c-220 -213 -490 -417 -703 -530 -73 -39 -145 -80 -160 -90
-109 -75 -410 -201 -482 -201 -32 0 -81 45 -77 70 2 8 26 29 53 46 28 18 77
52 109 75 61 45 296 196 421 270 114 68 506 320 555 357 166 124 312 277 361
379 l23 47 20 -44 c17 -36 21 -65 21 -144z m-4543 -46 c-8 -118 -63 -196 -167
-237 -38 -15 -167 -16 -214 -2 -92 28 -173 126 -186 226 l-7 53 249 3 c136 1
266 3 288 2 l40 0 -3 -45z m2138 29 c0 -19 -20 -29 -56 -29 -37 0 -231 -106
-305 -166 -58 -47 -70 -53 -91 -45 -73 28 -138 126 -138 208 l0 48 295 0 c267
0 295 -2 295 -16z m672 -192 c123 -32 268 -96 362 -158 73 -48 186 -144 186
-158 0 -5 -19 -16 -42 -27 -24 -10 -62 -36 -85 -58 -38 -34 -45 -37 -62 -25
-10 8 -43 33 -72 55 -251 191 -579 234 -869 114 -249 -103 -417 -291 -486
-542 -26 -92 -25 -337 0 -433 39 -145 105 -263 210 -374 82 -86 151 -135 260
-186 140 -67 198 -79 361 -80 157 0 227 16 360 82 208 104 365 287 440 512 32
97 45 167 61 321 l5 55 62 21 c34 12 76 27 94 35 18 7 35 10 38 7 16 -15 16
-180 1 -282 -58 -389 -271 -689 -613 -864 -123 -63 -203 -87 -332 -102 -243
-29 -524 41 -714 177 -49 34 -49 34 -83 18 -19 -9 -141 -63 -272 -121 -130
-58 -262 -119 -292 -136 -116 -66 -183 -98 -204 -98 -12 0 -27 -9 -34 -20 -16
-26 -166 -99 -183 -89 -8 4 -95 28 -194 54 -99 26 -195 56 -213 66 l-32 18
-15 -35 c-8 -20 -37 -72 -64 -117 -71 -119 -106 -192 -130 -274 -24 -79 -26
-81 -118 -112 l-62 -21 -68 25 c-60 22 -190 51 -309 70 -41 6 -41 6 -74 -47
-62 -100 -75 -118 -88 -123 -7 -2 -63 2 -124 10 -62 8 -113 13 -115 12 -1 -2
-23 -50 -49 -108 -56 -127 -99 -242 -108 -290 -6 -33 -12 -39 -61 -59 -52 -21
-56 -21 -117 -7 -35 9 -81 19 -103 22 -102 17 -533 137 -567 158 -32 21 -22
67 50 217 22 47 60 128 84 180 107 232 99 223 244 280 162 64 277 119 959 455
182 90 368 181 415 203 279 130 493 233 880 424 239 118 465 227 503 243 l67
28 0 101 c0 213 44 366 151 525 87 130 186 232 297 304 124 81 213 121 354
158 106 27 122 29 263 25 120 -3 169 -9 247 -29z m1494 -624 c-18 -506 -92
-801 -321 -1268 -198 -404 -533 -824 -836 -1051 -15 -10 -61 -45 -104 -78
-234 -176 -578 -357 -877 -461 -308 -108 -694 -175 -998 -175 -555 1 -906 73
-1435 295 -231 97 -235 102 -123 156 40 19 90 48 113 65 22 17 47 28 55 26 8
-3 65 -26 125 -52 233 -100 555 -189 783 -215 794 -91 1480 67 2101 483 432
290 674 566 985 1123 41 74 151 336 181 429 47 151 86 377 105 604 l9 120 53
54 c61 63 145 122 171 122 18 0 18 -9 13 -177z m-1300 106 c32 -6 63 -14 68
-19 4 -5 -10 -18 -34 -30 -23 -12 -77 -56 -120 -98 -85 -83 -108 -131 -96
-201 7 -46 47 -104 91 -131 64 -39 99 -37 245 14 72 25 134 46 137 46 12 0 -7
-100 -23 -127 -75 -121 -197 -171 -337 -139 -88 20 -119 37 -185 100 -99 92
-137 211 -107 327 28 112 99 198 199 245 58 27 78 28 162 13z"/>
<path d="M4145 8070 c-110 -36 -135 -68 -270 -334 -66 -129 -116 -239 -112
-243 11 -10 1585 -10 1830 1 113 5 197 12 197 18 0 5 -22 46 -48 91 -27 45
-81 144 -122 220 -78 147 -123 202 -192 239 l-43 23 -590 2 c-560 2 -593 1
-650 -17z"/>
<path d="M3627 7197 c-54 -17 -103 -61 -131 -116 -35 -68 -40 -110 -22 -173
29 -102 82 -155 183 -184 48 -14 58 -14 106 0 183 54 247 281 116 414 -65 65
-160 87 -252 59z"/>
<path d="M5755 7192 c-59 -28 -105 -71 -126 -117 -22 -48 -25 -151 -5 -199 36
-86 141 -156 234 -156 87 1 181 61 223 143 59 113 14 263 -94 319 -60 30 -178
36 -232 10z"/>
<path d="M4290 7019 c-48 -10 -84 -51 -84 -95 0 -29 7 -43 35 -69 l35 -32 261
-7 c329 -9 707 1 745 20 37 19 68 62 68 95 0 30 -49 87 -78 91 -43 6 -953 2
-982 -3z"/>
<path d="M5470 4772 c-19 -9 -161 -79 -315 -156 -520 -259 -800 -396 -809
-396 -6 0 -687 -331 -941 -457 -281 -139 -614 -296 -686 -323 -49 -18 -58 -26
-74 -63 -10 -23 -41 -91 -68 -150 -27 -60 -48 -110 -46 -112 10 -8 283 -76
347 -85 39 -5 77 -11 84 -12 7 -2 26 33 45 82 42 107 159 344 175 357 7 6 28
15 46 21 28 10 40 7 95 -18 97 -47 107 -44 160 48 25 42 63 94 85 115 l39 38
63 -25 c34 -14 108 -34 164 -45 55 -11 128 -29 160 -40 33 -12 62 -21 66 -21
4 0 26 42 50 93 109 234 162 328 212 374 13 12 53 36 89 52 l66 30 49 -25 c30
-15 81 -28 129 -34 44 -5 106 -16 138 -25 32 -8 63 -15 70 -15 7 0 32 38 56
85 55 110 112 144 156 95 40 -44 90 -29 622 193 29 12 53 24 53 27 0 3 -25 36
-55 73 -55 68 -131 212 -155 295 -14 46 -19 48 -70 24z"/>
</g>
</svg>
